<svg width="48" height="48" viewBox="0 0 48 48" fill="none" xmlns="http://www.w3.org/2000/svg">
<circle cx="24" cy="24" r="24" fill="#45467D"/>
<path d="M17.9243 11.3088C17.5232 11.2469 17.5061 11.2405 17.696 11.2128C18.0587 11.1573 18.912 11.232 19.5008 11.3707C20.8747 11.6949 22.1248 12.5269 23.4603 14.0053L23.8144 14.3979L24.3221 14.3168C26.4597 13.9755 28.6315 14.2464 30.4512 15.0805C30.9525 15.3109 31.7419 15.7675 31.8379 15.8848C31.872 15.9232 31.9296 16.1621 31.9659 16.4203C32.1024 17.312 32.0363 17.9925 31.7611 18.5024C31.6117 18.7797 31.6032 18.8672 31.7035 19.1061C31.7514 19.2045 31.826 19.2875 31.9188 19.3456C32.0116 19.4037 32.1188 19.4345 32.2283 19.4347C32.6805 19.4347 33.1669 18.7093 33.3909 17.6981L33.4805 17.2949L33.6576 17.4955C34.6325 18.592 35.3963 20.0853 35.5264 21.1477L35.5605 21.4251L35.3984 21.1733C35.1627 20.7878 34.8461 20.458 34.4704 20.2069C33.8176 19.7781 33.1264 19.6309 31.3003 19.5349C29.6491 19.4496 28.7147 19.3088 27.7888 19.008C26.2123 18.496 25.4187 17.8176 23.5456 15.3771C22.7136 14.2912 22.2016 13.6917 21.6896 13.2096C20.5269 12.1109 19.3856 11.5349 17.9243 11.3109V11.3088Z" fill="white"/>
<path d="M32.2133 13.7301C32.2539 13.0048 32.352 12.5248 32.5525 12.0875C32.5965 11.9769 32.6515 11.8712 32.7168 11.7717C32.7275 11.7717 32.6933 11.8997 32.64 12.0555C32.4949 12.4821 32.4693 13.0624 32.5717 13.7387C32.6997 14.5963 32.7701 14.72 33.6811 15.6459C34.1099 16.0811 34.6069 16.6272 34.7883 16.864L35.1168 17.2907L34.7883 16.9856C34.3872 16.6123 33.4656 15.8827 33.2608 15.7781C33.1243 15.7099 33.1029 15.7099 33.0197 15.7931C32.9408 15.8699 32.9259 15.9851 32.9131 16.5312C32.8981 17.3824 32.7808 17.9285 32.4992 18.4725C32.3477 18.7712 32.3243 18.7072 32.4608 18.3723C32.5632 18.1248 32.5739 18.0139 32.5739 17.1904C32.5739 15.5371 32.3733 15.1381 31.2149 14.4597C30.8655 14.2579 30.5067 14.0728 30.1397 13.9051C29.9589 13.8324 29.7835 13.7468 29.6149 13.6491C29.6469 13.6171 30.7776 13.9456 31.232 14.1184C31.9104 14.3787 32.0213 14.4107 32.1045 14.3808C32.1579 14.3595 32.1856 14.1995 32.2112 13.7301H32.2133ZM18.7029 16.5611C17.8901 15.4475 17.3845 13.7387 17.4955 12.4608L17.5275 12.0661L17.7131 12.0981C18.0629 12.1621 18.6624 12.384 18.944 12.5547C19.7141 13.0197 20.0491 13.632 20.3883 15.2064C20.4885 15.6672 20.6187 16.1877 20.6784 16.3669C20.7744 16.6507 21.1413 17.3141 21.4379 17.7451C21.6512 18.0565 21.5104 18.2037 21.0368 18.1611C20.3136 18.0971 19.3344 17.4251 18.7029 16.5611V16.5611ZM31.2235 24.8533C27.4176 23.3323 26.0779 22.0096 26.0779 19.7803C26.0779 19.4517 26.0885 19.1829 26.1035 19.1829C26.1163 19.1829 26.2635 19.2896 26.4299 19.424C27.2021 20.0384 28.0661 20.3008 30.4597 20.6485C31.8677 20.8533 32.6571 21.0176 33.3888 21.2587C35.7141 22.0245 37.1499 23.5776 37.4933 25.696C37.5915 26.3104 37.536 27.4624 37.3717 28.0704C37.2437 28.5504 36.8555 29.4144 36.7531 29.4485C36.7232 29.4592 36.6955 29.3504 36.6891 29.2011C36.6507 28.4075 36.2453 27.6331 35.5669 27.0528C34.7947 26.3936 33.7579 25.8688 31.2235 24.8555V24.8533ZM28.5525 25.4869C28.5078 25.2168 28.4466 24.9496 28.3691 24.6869L28.2709 24.3989L28.4523 24.6016C28.7019 24.8789 28.9003 25.2352 29.0667 25.7109C29.1947 26.0736 29.2075 26.1803 29.2075 26.7691C29.2075 27.3472 29.1904 27.4688 29.0709 27.7931C28.907 28.2739 28.6322 28.7095 28.2688 29.0645C27.5733 29.7685 26.6795 30.1568 25.3888 30.3189C25.1648 30.3467 24.512 30.3936 23.9381 30.4235C22.4896 30.4981 21.536 30.6539 20.6805 30.9525C20.603 30.9866 20.5198 31.0061 20.4352 31.0101C20.4011 30.976 20.9856 30.6304 21.4656 30.4C22.144 30.0736 22.8203 29.8965 24.3349 29.6469C25.0816 29.5232 25.856 29.3717 26.0523 29.312C27.904 28.7488 28.8576 27.2917 28.5525 25.4869V25.4869Z" fill="white"/>
<path d="M30.2976 28.5675C29.792 27.488 29.6747 26.4448 29.952 25.472C29.9819 25.3653 30.0288 25.2821 30.0587 25.2821C30.0864 25.2821 30.208 25.3461 30.3232 25.4251C30.5579 25.5808 31.0229 25.8432 32.2688 26.5173C33.8219 27.36 34.7093 28.0107 35.3109 28.7573C35.8379 29.408 36.1643 30.1525 36.3221 31.0571C36.4117 31.5691 36.3584 32.8064 36.2261 33.3227C35.808 34.9525 34.8395 36.2325 33.4528 36.9792C33.2501 37.088 33.0688 37.1776 33.0475 37.1776C33.0283 37.1776 33.1029 36.992 33.2117 36.7637C33.6789 35.7952 33.7323 34.8544 33.3803 33.8069C33.1627 33.1648 32.7232 32.3819 31.8357 31.0571C30.8032 29.5211 30.5515 29.1093 30.2976 28.5675V28.5675ZM16 34.3979C17.4144 33.2117 19.1701 32.3712 20.7723 32.1109C21.5975 32.0051 22.4345 32.0376 23.2491 32.2069C24.2731 32.4672 25.1904 33.0517 25.6661 33.7451C26.1312 34.4256 26.3317 35.0165 26.5408 36.3349C26.6219 36.8533 26.7115 37.376 26.7371 37.4933C26.8928 38.176 27.1979 38.7221 27.5733 38.9952C28.1707 39.4304 29.2032 39.4581 30.2165 39.0656C30.3218 39.0171 30.433 38.9827 30.5472 38.9632C30.5835 38.9995 30.0736 39.3387 29.7152 39.5179C29.29 39.744 28.8143 39.8585 28.3328 39.8507C27.4048 39.8507 26.6347 39.3813 25.9904 38.4256C25.7541 38.021 25.5432 37.602 25.3589 37.1712C24.6805 35.6331 24.3456 35.1659 23.5584 34.6517C22.8715 34.2037 21.9861 34.1248 21.3205 34.4491C20.4459 34.8757 20.2027 35.9851 20.8299 36.6891C21.1229 36.9916 21.5062 37.1907 21.9221 37.2565C22.0873 37.2792 22.2555 37.266 22.4152 37.218C22.5748 37.1699 22.7223 37.0881 22.8476 36.978C22.9728 36.8679 23.0729 36.7322 23.1411 36.58C23.2093 36.4278 23.2439 36.2627 23.2427 36.096C23.2427 35.6331 23.0635 35.3707 22.6133 35.1659C21.9968 34.8907 21.3376 35.2128 21.3397 35.7867C21.3397 36.032 21.4485 36.1856 21.696 36.2987C21.8539 36.3691 21.8581 36.3733 21.728 36.3477C21.1648 36.2304 21.0325 35.5541 21.4848 35.1061C22.0309 34.5685 23.1573 34.8053 23.5435 35.5413C23.7056 35.8507 23.7248 36.4651 23.584 36.8363C23.264 37.6683 22.3424 38.1056 21.4037 37.8667C20.7637 37.7045 20.5056 37.5296 19.7355 36.7424C18.3979 35.3728 17.8795 35.1061 15.9509 34.8075L15.5797 34.7499L16 34.3979V34.3979Z" fill="white"/>
<path fill-rule="evenodd" clip-rule="evenodd" d="M9.72373 9.88587C14.1909 15.2747 17.2693 17.4976 17.6107 17.9669C17.8923 18.3552 17.7856 18.7051 17.3035 18.9781C16.9606 19.1504 16.5874 19.254 16.2048 19.2832C15.8912 19.2832 15.7824 19.1637 15.7824 19.1637C15.6011 18.9931 15.4987 19.0229 14.5664 17.3781C13.7738 16.1446 12.9716 14.9171 12.16 13.696C12.0917 13.632 12.0939 13.632 14.4363 17.7984C14.8139 18.6667 14.5109 18.9845 14.5109 19.1083C14.5109 19.36 14.4405 19.4923 14.1291 19.84C13.6085 20.416 13.376 21.0645 13.2075 22.4064C13.0197 23.9104 12.4907 24.9728 11.0229 26.7925C10.1653 27.8571 10.0245 28.0512 9.80693 28.4821C9.53386 29.0219 9.4592 29.3248 9.42933 30.0053C9.39733 30.7285 9.4592 31.1936 9.68106 31.8827C9.87306 32.4885 10.0779 32.8853 10.5963 33.6832C11.0443 34.3723 11.3003 34.8843 11.3003 35.0848C11.3003 35.2427 11.3301 35.2427 12.0256 35.0869C13.6811 34.7157 15.0272 34.0629 15.7845 33.2587C16.2539 32.7616 16.3627 32.4885 16.3669 31.808C16.3691 31.3643 16.3541 31.2704 16.2325 31.0144C16.0363 30.5984 15.6779 30.2507 14.8885 29.7131C13.8517 29.0091 13.408 28.4437 13.2885 27.6651C13.1861 27.0251 13.3035 26.5749 13.8752 25.3824C14.4683 24.1451 14.6155 23.6181 14.7157 22.3744C14.7797 21.5701 14.8672 21.2523 15.0997 20.9963C15.3429 20.7317 15.5605 20.6421 16.1621 20.5611C17.1413 20.4267 17.7621 20.1771 18.2741 19.7077C18.4794 19.5383 18.6449 19.326 18.7592 19.0857C18.8735 18.8454 18.9336 18.5829 18.9355 18.3168L18.9568 17.8688L18.7072 17.5829C17.8091 16.5419 9.12213 9.06667 9.06666 9.06667C9.056 9.06667 9.3504 9.43573 9.72373 9.88587ZM11.8059 30.8245C11.9037 30.6517 11.9328 30.4483 11.8874 30.2549C11.8419 30.0616 11.7252 29.8924 11.5605 29.7813C11.2405 29.568 10.7392 29.6704 10.7392 29.9456C10.7392 30.0309 10.7861 30.0928 10.8928 30.1461C11.072 30.2379 11.0848 30.3403 10.944 30.5515C10.8011 30.7627 10.8139 30.9483 10.976 31.0763C11.2384 31.2789 11.6096 31.168 11.8059 30.8245V30.8245ZM19.5733 20.7979C19.1147 20.9365 18.6688 21.4208 18.528 21.9285C18.4448 22.2379 18.4939 22.7819 18.6197 22.9483C18.8245 23.2192 19.0208 23.2896 19.5563 23.2875C20.6016 23.2811 21.5104 22.8352 21.6171 22.2763C21.7024 21.8197 21.3035 21.1883 20.7531 20.9088C20.3792 20.757 19.9689 20.7184 19.5733 20.7979V20.7979ZM20.7979 21.7472C20.9579 21.5189 20.8875 21.2736 20.6123 21.1072C20.0917 20.7893 19.3003 21.0517 19.3003 21.5424C19.3003 21.7877 19.712 22.0544 20.0896 22.0544C20.3413 22.0544 20.6869 21.9051 20.7979 21.7472Z" fill="white"/>
</svg>
